<?xml version="1.0" encoding="UTF-8" standalone="no"?>
<svg
   xmlns:dc="http://purl.org/dc/elements/1.1/"
   xmlns:cc="http://creativecommons.org/ns#"
   xmlns:rdf="http://www.w3.org/1999/02/22-rdf-syntax-ns#"
   xmlns:svg="http://www.w3.org/2000/svg"
   xmlns="http://www.w3.org/2000/svg"
   viewBox="0 0 491.14667 482.32001"
   height="482.32001"
   width="491.14667"
   xml:space="preserve"
   id="svg2"
   version="1.1"><metadata
     id="metadata8"><rdf:RDF><cc:Work
         rdf:about=""><dc:format>image/svg+xml</dc:format><dc:type
           rdf:resource="http://purl.org/dc/dcmitype/StillImage" /></cc:Work></rdf:RDF></metadata><defs
     id="defs6" /><g
     transform="matrix(1.3333333,0,0,-1.3333333,0,482.32)"
     id="g10"><g
       transform="scale(0.1)"
       id="g12"><path
         id="path14"
         style="fill:#c28f60;fill-opacity:1;fill-rule:evenodd;stroke:none"
         d="m 1747.04,2499.47 h 172.8 V 63.1445 L 1837.13,0 1747.04,32.9688 V 2499.47" /><path
         id="path16"
         style="fill:#aa7950;fill-opacity:1;fill-rule:evenodd;stroke:none"
         d="M 1825.27,3614.37 43.1836,3029.57 c 4.6094,1.19 2.875,-17.4 7.8555,-17.4 19.5429,0 30.25,2.1 40.664,-12.79 l 16.9419,-8.66 159.058,-21.93 1589.027,-500.03 2.76,-0.87 1673.29,531.6 81.87,12.79 c 6.87,2.84 23.07,19.3 31.31,19.3 l -1781.52,581.7 c -12.1,4.81 -25.88,5.57 -39.21,1.19 l 0.04,-0.1" /><path
         id="path18"
         style="fill:#c28f60;fill-opacity:1;fill-rule:evenodd;stroke:none"
         d="M 0,2972.46 V 670 C 0,643.926 17.3242,621.902 41.0859,614.805 L 1822.36,3.58594 c 2.7,-1.0586 5.51,-1.90625 8.39,-2.53906 l 0.63,-0.14063 0.55,-0.105469 0.08,-0.019531 0.62,-0.117187 0.37,-0.066407 0.05,-0.011718 c 1.34,-0.242188 2.7,-0.4375 4.04,-0.585938 l 19.64,2468.76 C 1663.61,2529.54 103.203,3045.04 43.1836,3029.57 l -0.0859,-0.03 c -6.7852,-1.77 -13.1914,-4.77 -18.8946,-8.81 -7.1797,-5.12 -13.1445,-11.85 -17.34763,-19.67 -1.58984,-2.95 -2.93359,-6.06 -3.98438,-9.31 -0.9414,-2.86 -1.64062,-5.74 -2.117184,-8.63 -0.019531,-0.11 -0.035156,-0.21 -0.050781,-0.32 C 0.21875,2979.79 -0.015625,2976.78 0,2973.79 v -1.33" /><path
         id="path20"
         style="fill:#654730;fill-opacity:1;fill-rule:evenodd;stroke:none"
         d="m 235.93,838.23 c 6.351,-0.781 12.113,-3.535 18.422,-7.046 v 0 -108.149 c 2.543,-2 4.589,-4.93 5.355,-8.062 0.656,-2.7 0.238,-5.051 -0.961,-6.66 0.414,-0.852 0.738,-1.743 0.961,-2.637 0.656,-2.696 0.238,-5.051 -0.961,-6.66 0.414,-0.852 0.738,-1.731 0.961,-2.629 0.656,-2.703 0.238,-5.059 -0.961,-6.668 0.414,-0.852 0.738,-1.731 0.961,-2.629 0.656,-2.703 0.238,-5.059 -0.961,-6.668 0.414,-0.852 0.738,-1.731 0.961,-2.629 0.656,-2.703 0.238,-5.059 -0.961,-6.672 0.414,-0.848 0.738,-1.726 0.961,-2.625 1.305,-5.371 -1.633,-9.363 -6.519,-8.894 l -11.336,1.089 c -4.895,0.481 -9.965,5.266 -11.278,10.637 -0.656,2.695 -0.238,5.051 0.953,6.66 -0.41,0.852 -0.73,1.739 -0.953,2.637 -0.656,2.695 -0.238,5.051 0.953,6.66 -0.41,0.852 -0.73,1.731 -0.953,2.637 -0.656,2.695 -0.238,5.051 0.953,6.66 -0.41,0.852 -0.73,1.738 -0.953,2.637 -0.656,2.695 -0.238,5.051 0.953,6.66 -0.41,0.851 -0.73,1.726 -0.953,2.629 -0.656,2.703 -0.238,5.055 0.953,6.668 -0.41,0.847 -0.73,1.726 -0.953,2.629 -1.199,4.929 1.18,8.699 5.356,8.925 v 111.5 z m 0,105.051 v 14.043 c 0,5.086 4.125,7.703 9.211,5.86 5.086,-1.868 9.211,-7.493 9.211,-12.579 v -13.808 l -0.039,0.019 -0.059,0.02 c -6.133,2.461 -12.109,4.387 -18.324,6.445" /><path
         id="path22"
         style="fill:#654730;fill-opacity:1;fill-rule:evenodd;stroke:none"
         d="m 153.184,931.633 c -19.93,-12.219 -33.696,-32.973 -38.086,-60.227 16.898,12.141 47.382,3.992 68.703,-16.633 6.847,-6.628 12.422,-14.214 16.097,-22.058 8.774,12.305 26.961,14.226 45.243,7.558 l 0.054,-0.019 0.016,-0.012 0.574,-0.215 v -0.015 l 0.43,-0.149 v -0.008 l 1.152,-0.402 c -0.097,0.039 -0.187,0.078 0.203,-0.066 0.352,-0.129 0.692,-0.293 1.024,-0.489 10.004,-4.218 19.219,-10.636 26.758,-18.195 6.367,-6.379 11.55,-13.586 15.035,-20.996 8.777,12.316 26.961,14.231 45.242,7.559 15.094,-5.508 29.797,-16.59 39.551,-30.711 -4.422,30.718 -18.399,61.797 -38.617,88.718 -51.149,68.094 -132.5,97.547 -183.379,66.36" /><path
         id="path24"
         style="fill:#654730;fill-opacity:1;fill-rule:evenodd;stroke:none"
         d="m 546.227,610.715 v 124.004 l 38.007,-13.52 -79.351,127.395 -79.34,-70.977 38.004,-13.515 V 640.105 l 82.68,-29.39" /><path
         id="path26"
         style="fill:#654730;fill-opacity:1;fill-rule:evenodd;stroke:none"
         d="m 718.453,549.492 v 123.992 l 38,-13.504 -79.34,127.383 -79.343,-70.976 38.007,-13.504 V 578.879 l 82.676,-29.387" /><path
         id="path28"
         style="fill:#654730;fill-opacity:1;fill-rule:evenodd;stroke:none"
         d="M 464.313,606.328 V 585.43 l 252.835,-91.778 v 20.899 l -252.835,91.777" /><path
         id="path30"
         style="fill:#d2a06d;fill-opacity:1;fill-rule:evenodd;stroke:none"
         d="M 1855.65,2331.6 1837.13,0 c 2.16,-0.117188 20.55,5.95703 24.1,7.34375 L 3642.48,618.555 c 23.77,7.097 41.09,29.133 41.09,55.195 v 2282.27 21.52 c 0,12.14 -3.75,23.4 -10.17,32.69 -10.34,14.98 -27.6,24.82 -47.17,24.91 -0.09,0 -0.17,0 -0.26,0 -7.8,0 -15.24,-1.55 -22.03,-4.37 -988.06,-318.82 -937.17,-302.39 -1744.45,-562.88 l -2.76,0.87 -1.08,-137.16" /><path
         id="path32"
         style="fill:#654730;fill-opacity:1;fill-rule:evenodd;stroke:none"
         d="m 2586.29,2296.09 0.15,0.04 20.61,39.71 39.72,-20.63 20.62,39.72 40.01,-20.77 20.77,40 40,-20.77 20.78,40.01 40,-20.77 20.77,40 40.01,-20.77 20.77,40 40.01,-20.77 20.78,40.02 40,-20.78 20.78,40.01 0.14,-0.08 -16.99,376.94 -291.09,92.83 -1488,473.27 -413.11,-135.57 1745.24,-581.14 18.03,-400.5" /><path
         id="path34"
         style="fill:#654730;fill-opacity:1;fill-rule:evenodd;stroke:none"
         d="m 3071.83,846.492 423.6,130.278 V 807.324 l -423.6,-130.261 v 169.429" /><path
         id="path36"
         style="fill:#654730;fill-opacity:1;fill-rule:evenodd;stroke:none"
         d="m 3071.83,1085.65 423.6,130.27 v -169.44 l -423.6,-130.269 v 169.439" /></g></g></svg>